<svg xmlns="http://www.w3.org/2000/svg" width="462.5924072265625" height="373.2607421875" viewBox="-249.94741821289062 -163.49778747558594 462.5924072265625 373.2607421875"><title>Neo4j Graph Visualization</title><desc>Created using Neo4j (http://www.neo4j.com/)</desc><g class="layer relationships"><g class="relationship" transform="translate(76.55630615880234 85.63023485250581) rotate(202.34367486812084)"><path class="b-outline" fill="#A5ABB6" stroke="none" d="M 25 0.5 L 57.78302091550768 0.5 L 57.78302091550768 -0.5 L 25 -0.5 Z M 105.56817716550768 0.5 L 138.35119808101535 0.5 L 138.35119808101535 3.5 L 145.35119808101535 0 L 138.35119808101535 -3.5 L 138.35119808101535 -0.5 L 105.56817716550768 -0.5 Z"/><text text-anchor="middle" pointer-events="none" font-size="8px" fill="#000000" x="81.67559904050768" y="3" transform="rotate(180 81.67559904050768 0)" font-family="Helvetica Neue, Helvetica, Arial, sans-serif">REQUIRES</text></g><g class="relationship" transform="translate(-19.918014511725243 108.44376230625365) rotate(235.10257326446884)"><path class="b-outline" fill="#A5ABB6" stroke="none" d="M 25 0.5 L 25.541797940972444 0.5 L 25.541797940972444 -0.5 L 25 -0.5 Z M 74.23320419097244 0.5 L 74.77500213194489 0.5 L 74.77500213194489 3.5 L 81.77500213194489 0 L 74.77500213194489 -3.5 L 74.77500213194489 -0.5 L 74.23320419097244 -0.5 Z"/><text text-anchor="middle" pointer-events="none" font-size="8px" fill="#000000" x="49.887501065972444" y="3" transform="rotate(180 49.887501065972444 0)" font-family="Helvetica Neue, Helvetica, Arial, sans-serif">HAS_SKILL</text></g><g class="relationship" transform="translate(-19.918014511725243 108.44376230625365) rotate(290.8454759849716)"><path class="b-outline" fill="#A5ABB6" stroke="none" d="M 25 0.5 L 32.33058078434292 0.5 L 32.33058078434292 -0.5 L 25 -0.5 Z M 81.02198703434291 0.5 L 88.35256781868584 0.5 L 88.35256781868584 3.5 L 95.35256781868584 0 L 88.35256781868584 -3.5 L 88.35256781868584 -0.5 L 81.02198703434291 -0.5 Z"/><text text-anchor="middle" pointer-events="none" font-size="8px" fill="#000000" x="56.67628390934292" y="3" font-family="Helvetica Neue, Helvetica, Arial, sans-serif">HAS_SKILL</text></g><g class="relationship" transform="translate(76.55630615880234 85.63023485250581) rotate(380.73142612819777)"><path class="b-outline" fill="#A5ABB6" stroke="none" d="M 25 0.5 L 29.858781185401412 0.5 L 29.858781185401412 -0.5 L 25 -0.5 Z M 77.64393743540141 0.5 L 82.50271862080282 0.5 L 82.50271862080282 3.5 L 89.50271862080282 0 L 82.50271862080282 -3.5 L 82.50271862080282 -0.5 L 77.64393743540141 -0.5 Z"/><text text-anchor="middle" pointer-events="none" font-size="8px" fill="#000000" x="53.75135931040141" y="3" font-family="Helvetica Neue, Helvetica, Arial, sans-serif">REQUIRES</text></g><g class="relationship" transform="translate(-19.918014511725243 108.44376230625365) rotate(364.9747457547482)"><path class="b-outline" fill="#A5ABB6" stroke="none" d="M 25 0.5 L 74.32065066973894 0.5 L 74.32065066973894 -0.5 L 25 -0.5 Z M 123.01205691973894 0.5 L 172.33270758947788 0.5 L 172.33270758947788 3.5 L 179.33270758947788 0 L 172.33270758947788 -3.5 L 172.33270758947788 -0.5 L 123.01205691973894 -0.5 Z"/><text text-anchor="middle" pointer-events="none" font-size="8px" fill="#000000" x="98.66635379473894" y="3" font-family="Helvetica Neue, Helvetica, Arial, sans-serif">HAS_SKILL</text></g><g class="relationship" transform="translate(76.55630615880234 85.63023485250581) rotate(290.38303947541135)"><path class="b-outline" fill="#A5ABB6" stroke="none" d="M 25 0.5 L 33.76417040250272 0.5 L 33.76417040250272 -0.5 L 25 -0.5 Z M 81.54932665250271 0.5 L 90.31349705500544 0.5 L 90.31349705500544 3.5 L 97.31349705500544 0 L 90.31349705500544 -3.5 L 90.31349705500544 -0.5 L 81.54932665250271 -0.5 Z"/><text text-anchor="middle" pointer-events="none" font-size="8px" fill="#000000" x="57.65674852750272" y="3" font-family="Helvetica Neue, Helvetica, Arial, sans-serif">REQUIRES</text></g><g class="relationship" transform="translate(-19.918014511725243 108.44376230625365) rotate(315.33295687031045)"><path class="b-outline" fill="#A5ABB6" stroke="none" d="M 25 0.5 L 69.92895647885857 0.5 L 69.92895647885857 -0.5 L 25 -0.5 Z M 118.62036272885857 0.5 L 163.54931920771713 0.5 L 163.54931920771713 3.5 L 170.54931920771713 0 L 163.54931920771713 -3.5 L 163.54931920771713 -0.5 L 118.62036272885857 -0.5 Z"/><text text-anchor="middle" pointer-events="none" font-size="8px" fill="#000000" x="94.27465960385857" y="3" font-family="Helvetica Neue, Helvetica, Arial, sans-serif">HAS_SKILL</text></g><g class="relationship" transform="translate(-30.521739347044193 -134.49779343840163) rotate(468.0004636539966)"><path class="b-outline" fill="#A5ABB6" stroke="none" d="M 25 0.5 L 54.28895167163522 0.5 L 54.28895167163522 -0.5 L 25 -0.5 Z M 102.07410792163522 0.5 L 131.36305959327044 0.5 L 131.36305959327044 3.5 L 138.36305959327044 0 L 131.36305959327044 -3.5 L 131.36305959327044 -0.5 L 102.07410792163522 -0.5 Z"/><text text-anchor="middle" pointer-events="none" font-size="8px" fill="#000000" x="78.18152979663522" y="3" transform="rotate(180 78.18152979663522 0)" font-family="Helvetica Neue, Helvetica, Arial, sans-serif">REQUIRES</text></g><g class="relationship" transform="translate(-30.521739347044193 -134.49779343840163) rotate(427.7290676270941)"><path class="b-outline" fill="#A5ABB6" stroke="none" d="M 25 0.5 L 43.09939556199852 0.5 L 43.09939556199852 -0.5 L 25 -0.5 Z M 90.88455181199852 0.5 L 108.98394737399704 0.5 L 108.98394737399704 3.5 L 115.98394737399704 0 L 108.98394737399704 -3.5 L 108.98394737399704 -0.5 L 90.88455181199852 -0.5 Z"/><text text-anchor="middle" pointer-events="none" font-size="8px" fill="#000000" x="66.99197368699852" y="3" font-family="Helvetica Neue, Helvetica, Arial, sans-serif">REQUIRES</text></g><g class="relationship" transform="translate(-168.13175468373336 -97.88405299334997) rotate(413.7332994203855)"><path class="b-outline" fill="#A5ABB6" stroke="none" d="M 25 0.5 L 46.25088320959779 0.5 L 46.25088320959779 -0.5 L 25 -0.5 Z M 94.03603945959779 0.5 L 115.28692266919558 0.5 L 115.28692266919558 3.5 L 122.28692266919558 0 L 115.28692266919558 -3.5 L 115.28692266919558 -0.5 L 94.03603945959779 -0.5 Z"/><text text-anchor="middle" pointer-events="none" font-size="8px" fill="#000000" x="70.14346133459779" y="3" font-family="Helvetica Neue, Helvetica, Arial, sans-serif">REQUIRES</text></g><g class="relationship" transform="translate(-220.94741122012422 62.34163972490327) rotate(343.49266192925984)"><path class="b-outline" fill="#A5ABB6" stroke="none" d="M 25 0.5 L 45.58660565638651 0.5 L 45.58660565638651 -0.5 L 25 -0.5 Z M 93.37176190638651 0.5 L 113.95836756277302 0.5 L 113.95836756277302 3.5 L 120.95836756277302 0 L 113.95836756277302 -3.5 L 113.95836756277302 -0.5 L 93.37176190638651 -0.5 Z"/><text text-anchor="middle" pointer-events="none" font-size="8px" fill="#000000" x="69.47918378138651" y="3" font-family="Helvetica Neue, Helvetica, Arial, sans-serif">REQUIRES</text></g><g class="relationship" transform="translate(47.41101518587274 180.76296360916794) rotate(231.23088207932346)"><path class="b-outline" fill="#A5ABB6" stroke="none" d="M 25 0.5 L 75.14600702930905 0.5 L 75.14600702930905 -0.5 L 25 -0.5 Z M 122.93116327930905 0.5 L 173.0771703086181 0.5 L 173.0771703086181 3.5 L 180.0771703086181 0 L 173.0771703086181 -3.5 L 173.0771703086181 -0.5 L 122.93116327930905 -0.5 Z"/><text text-anchor="middle" pointer-events="none" font-size="8px" fill="#000000" x="99.03858515430905" y="3" transform="rotate(180 99.03858515430905 0)" font-family="Helvetica Neue, Helvetica, Arial, sans-serif">REQUIRES</text></g><g class="relationship" transform="translate(47.41101518587274 180.76296360916794) rotate(262.44724184967333)"><path class="b-outline" fill="#A5ABB6" stroke="none" d="M 25 0.5 L 65.81300757051378 0.5 L 65.81300757051378 -0.5 L 25 -0.5 Z M 113.59816382051378 0.5 L 154.41117139102755 0.5 L 154.41117139102755 3.5 L 161.41117139102755 0 L 154.41117139102755 -3.5 L 154.41117139102755 -0.5 L 113.59816382051378 -0.5 Z"/><text text-anchor="middle" pointer-events="none" font-size="8px" fill="#000000" x="89.70558569551378" y="3" transform="rotate(180 89.70558569551378 0)" font-family="Helvetica Neue, Helvetica, Arial, sans-serif">REQUIRES</text></g><g class="relationship" transform="translate(47.41101518587274 180.76296360916794) rotate(338.15996258847645)"><path class="b-outline" fill="#A5ABB6" stroke="none" d="M 25 0.5 L 45.991461018777954 0.5 L 45.991461018777954 -0.5 L 25 -0.5 Z M 93.77661726877795 0.5 L 114.76807828755591 0.5 L 114.76807828755591 3.5 L 121.76807828755591 0 L 114.76807828755591 -3.5 L 114.76807828755591 -0.5 L 93.77661726877795 -0.5 Z"/><text text-anchor="middle" pointer-events="none" font-size="8px" fill="#000000" x="69.88403914377795" y="3" font-family="Helvetica Neue, Helvetica, Arial, sans-serif">REQUIRES</text></g></g><g class="layer nodes"><g class="node" aria-label="graph-node124090" transform="translate(-19.918014511725243,108.44376230625365)"><circle class="b-outline" cx="0" cy="0" r="25" fill="#569480" stroke="#447666" stroke-width="2px"/><text class="caption" text-anchor="middle" pointer-events="none" x="0" y="0" font-size="10px" fill="#FFFFFF" font-family="Helvetica Neue, Helvetica, Arial, sans-serif"> Christian</text><text class="caption" text-anchor="middle" pointer-events="none" x="0" y="10" font-size="10px" fill="#FFFFFF" font-family="Helvetica Neue, Helvetica, Arial, sans-serif"> Zerial</text></g><g class="node" aria-label="graph-node182" transform="translate(76.55630615880234,85.63023485250581)"><circle class="b-outline" cx="0" cy="0" r="25" fill="#F16667" stroke="#eb2728" stroke-width="2px"/><text class="caption" text-anchor="middle" pointer-events="none" x="0" y="-5" font-size="10px" fill="#FFFFFF" font-family="Helvetica Neue, Helvetica, Arial, sans-serif"> Full</text><text class="caption" text-anchor="middle" pointer-events="none" x="0" y="5" font-size="10px" fill="#FFFFFF" font-family="Helvetica Neue, Helvetica, Arial, sans-serif"> Stack</text><text class="caption" text-anchor="middle" pointer-events="none" x="0" y="15" font-size="10px" fill="#FFFFFF" font-family="Helvetica Neue, Helvetica, Arial, sans-serif"> Eng…</text></g><g class="node" aria-label="graph-node9" transform="translate(-81.00495829150303,20.869300389990045)"><circle class="b-outline" cx="0" cy="0" r="25" fill="#57C7E3" stroke="#23b3d7" stroke-width="2px"/><text class="caption" text-anchor="middle" pointer-events="none" x="0" y="5" font-size="10px" fill="#2A2C34" font-family="Helvetica Neue, Helvetica, Arial, sans-serif"> azure</text></g><g class="node" aria-label="graph-node58" transform="translate(22.909305562806907,-4.030951455484601)"><circle class="b-outline" cx="0" cy="0" r="25" fill="#57C7E3" stroke="#23b3d7" stroke-width="2px"/><text class="caption" text-anchor="middle" pointer-events="none" x="0" y="5" font-size="10px" fill="#2A2C34" font-family="Helvetica Neue, Helvetica, Arial, sans-serif"> java</text></g><g class="node" aria-label="graph-node52" transform="translate(183.64497522850385,126.16280852399504)"><circle class="b-outline" cx="0" cy="0" r="25" fill="#57C7E3" stroke="#23b3d7" stroke-width="2px"/><text class="caption" text-anchor="middle" pointer-events="none" x="0" y="5" font-size="10px" fill="#2A2C34" font-family="Helvetica Neue, Helvetica, Arial, sans-serif"> javascript</text></g><g class="node" aria-label="graph-node36" transform="translate(119.15743432390666,-29.02461869013836)"><circle class="b-outline" cx="0" cy="0" r="25" fill="#57C7E3" stroke="#23b3d7" stroke-width="2px"/><text class="caption" text-anchor="middle" pointer-events="none" x="0" y="5" font-size="10px" fill="#2A2C34" font-family="Helvetica Neue, Helvetica, Arial, sans-serif"> mongodb</text></g><g class="node" aria-label="graph-node464" transform="translate(-30.521739347044193,-134.49779343840163)"><circle class="b-outline" cx="0" cy="0" r="25" fill="#F16667" stroke="#eb2728" stroke-width="2px"/><text class="caption" text-anchor="middle" pointer-events="none" x="0" y="-5" font-size="10px" fill="#FFFFFF" font-family="Helvetica Neue, Helvetica, Arial, sans-serif"> Cloud</text><text class="caption" text-anchor="middle" pointer-events="none" x="0" y="5" font-size="10px" fill="#FFFFFF" font-family="Helvetica Neue, Helvetica, Arial, sans-serif"> Platform/</text><text class="caption" text-anchor="middle" pointer-events="none" x="0" y="15" font-size="10px" fill="#FFFFFF" font-family="Helvetica Neue, Helvetica, Arial, sans-serif"> Big</text></g><g class="node" aria-label="graph-node470" transform="translate(-168.13175468373336,-97.88405299334997)"><circle class="b-outline" cx="0" cy="0" r="25" fill="#F16667" stroke="#eb2728" stroke-width="2px"/><text class="caption" text-anchor="middle" pointer-events="none" x="0" y="-5" font-size="10px" fill="#FFFFFF" font-family="Helvetica Neue, Helvetica, Arial, sans-serif"> Data</text><text class="caption" text-anchor="middle" pointer-events="none" x="0" y="5" font-size="10px" fill="#FFFFFF" font-family="Helvetica Neue, Helvetica, Arial, sans-serif"> Science</text><text class="caption" text-anchor="middle" pointer-events="none" x="0" y="15" font-size="10px" fill="#FFFFFF" font-family="Helvetica Neue, Helvetica, Arial, sans-serif"> Soft…</text></g><g class="node" aria-label="graph-node603" transform="translate(-220.94741122012422,62.34163972490327)"><circle class="b-outline" cx="0" cy="0" r="25" fill="#F16667" stroke="#eb2728" stroke-width="2px"/><text class="caption" text-anchor="middle" pointer-events="none" x="0" y="-5" font-size="10px" fill="#FFFFFF" font-family="Helvetica Neue, Helvetica, Arial, sans-serif"> Cloud /</text><text class="caption" text-anchor="middle" pointer-events="none" x="0" y="5" font-size="10px" fill="#FFFFFF" font-family="Helvetica Neue, Helvetica, Arial, sans-serif"> .NET</text><text class="caption" text-anchor="middle" pointer-events="none" x="0" y="15" font-size="10px" fill="#FFFFFF" font-family="Helvetica Neue, Helvetica, Arial, sans-serif"> Dev…</text></g><g class="node" aria-label="graph-node663" transform="translate(47.41101518587274,180.76296360916794)"><circle class="b-outline" cx="0" cy="0" r="25" fill="#F16667" stroke="#eb2728" stroke-width="2px"/><text class="caption" text-anchor="middle" pointer-events="none" x="0" y="-10" font-size="10px" fill="#FFFFFF" font-family="Helvetica Neue, Helvetica, Arial, sans-serif"> Full</text><text class="caption" text-anchor="middle" pointer-events="none" x="0" y="0" font-size="10px" fill="#FFFFFF" font-family="Helvetica Neue, Helvetica, Arial, sans-serif"> stack</text><text class="caption" text-anchor="middle" pointer-events="none" x="0" y="10" font-size="10px" fill="#FFFFFF" font-family="Helvetica Neue, Helvetica, Arial, sans-serif"> Azure</text><text class="caption" text-anchor="middle" pointer-events="none" x="0" y="20" font-size="10px" fill="#FFFFFF" font-family="Helvetica Neue, Helvetica, Arial, sans-serif">.N…</text></g></g></svg>